<svg width="32" height="32" xmlns="http://www.w3.org/2000/svg"><defs><pattern id="prefix__b" x="0" y="0" width="1" height="1" patternUnits="objectBoundingBox"><linearGradient id="prefix__a" x1="0" y1="1" x2="1" y2="0"><stop offset="0%" stop-color="#ec407a"/><stop offset="100%" stop-color="#8e24aa"/></linearGradient><path fill="url(#prefix__a)" d="M0 0h30v5H0z"/></pattern></defs><path fill="url(#prefix__b)" d="M2.5 23h25a2.5 2.5 0 012.5 2.5 2.5 2.5 0 01-2.5 2.5h-25A2.5 2.5 0 010 25.5 2.5 2.5 0 012.5 23"/><defs><pattern id="prefix__d" x="0" y="0" width="1" height="1" patternUnits="objectBoundingBox"><linearGradient id="prefix__c" x1="0" y1="1" x2="1" y2="0"><stop offset="0%" stop-color="#ec407a"/><stop offset="100%" stop-color="#8e24aa"/></linearGradient><path fill="url(#prefix__c)" d="M0 0h33v5H0z"/></pattern></defs><path fill="url(#prefix__d)" d="M-2.5 14h28a2.5 2.5 0 012.5 2.5 2.5 2.5 0 01-2.5 2.5h-28A2.5 2.5 0 01-5 16.5 2.5 2.5 0 01-2.5 14" transform="rotate(-63.9 11.528 16.473)"/><defs><pattern id="prefix__f" x="0" y="0" width="1" height="1" patternUnits="objectBoundingBox"><linearGradient id="prefix__e" x1="0" y1="1" x2="1" y2="0"><stop offset="0%" stop-color="#ec407a"/><stop offset="100%" stop-color="#8e24aa"/></linearGradient><path fill="url(#prefix__e)" d="M0 0h34v5H0z"/></pattern></defs><path fill="url(#prefix__f)" d="M4.5 14h29a2.5 2.5 0 012.5 2.5 2.5 2.5 0 01-2.5 2.5h-29A2.5 2.5 0 012 16.5 2.5 2.5 0 014.5 14" transform="matrix(-.5 -.87 .87 -.5 14.21 41.2)"/></svg>